<?xml version="1.0" encoding="utf-8"?>
<svg version="1.1" id="Layer_1" xmlns="http://www.w3.org/2000/svg" xmlns:xlink="http://www.w3.org/1999/xlink" x="0px" y="0px"
	 width="738.6px" height="158.5px" viewBox="0 0 738.6 158.5" style="enable-background:new 0 0 738.6 158.5;" xml:space="preserve"
	>
<style type="text/css">
	.st0{fill:#009688;}
</style>
<g>
	<path class="st0" d="M20.9,51l106.9,76.5c3.7,0.7,22.1,3.6,45.8-0.5l21.8-3.7c-4.6-6.2-14.2-16.8-25.2-17.1
		c-9.2-0.2-15.8-0.9-21.3-3.4c-5.7-2.5-9.9-6.6-14.4-13.5l-0.7-1.1l-10.5,13.3l-5.6-4.4l12.5-15.8c-1.5-3.3-3.1-7-4.6-10.9l-14.2,18
		l-5.6-4.4l16.8-21.4c-1.7-4.4-3.2-8.9-4.7-13l-21,26.7l-5.6-4.4l23.9-30.3c-1-2.9-1.8-5.3-2.3-6.9c-3.9-0.2-7.8-0.6-11.5-1.1
		C91.8,47.5,72.3,57,49.8,57c-10.2,0-19.9-2-28.2-5.4L20.9,51L20.9,51z M16.6,56.6c-2,2.6-4,5.3-5.9,7.9c-2.6,3.5-5.4,5.8-1.4,9.2
		c3.6,3.1,18.9,13.8,37.1,26.1c28.8,19.6,64.6,43.2,72.5,48.1c10.6,6.6,66.1,2.3,80.4,1.1l-1.2-19l-23.3,4
		c-15.2,2.6-34.5,3.3-49.9,0.1L16.6,56.6L16.6,56.6z M58.1,1.6C72.2,19.8,90,26.3,112.8,27.7c2.6,0.2,5-1,6.6,4.1
		c5.2,16.5,13,41.4,21,53.7c3.6,5.7,7,9,11.3,10.9c4.5,2,10.3,2.6,18.6,2.8c14.5,0.4,27.4,14,34.5,25.6l1.6,25.7
		c0.1,3.7-2.1,5.2-4.1,5.4c-22.2,1.9-75.3,5.4-87.1-1.9c-7.9-4.9-43.8-28.6-72.8-48.3C40,104.1,3.3,79.1,3.8,78.3
		c-6.4-6.4-3.7-11.4,1.2-18C19.1,41.1,35.3,19.2,51.6,1.9C53.7-0.3,56.3-0.9,58.1,1.6L58.1,1.6z"/>
</g>
<g>
	<path class="st0" d="M270.5,66.7c0-3.9-1.1-6.9-3.3-8.9c-2.2-2-5.3-3.1-9.4-3.1c-3.3,0-6.3,0.8-8.7,2.3c-2.5,1.5-4.6,3.5-6.2,6
		c-1.6,2.5-2.9,5.2-3.7,8.3c-0.8,3.1-1.3,6.2-1.3,9.3c0,5.2,1.3,9.3,4,12.3c2.7,3,6.5,4.5,11.4,4.5c2.5,0,4.6-0.5,6.4-1.5
		c1.7-1,3.2-2.1,4.3-3.5c1.1-1.4,2-2.8,2.6-4.3c0.6-1.5,1-2.7,1.3-3.6h9.8c-0.8,3.6-2,6.6-3.5,9.3s-3.4,4.8-5.6,6.5
		c-2.2,1.7-4.6,3-7.2,3.8c-2.6,0.8-5.4,1.3-8.3,1.3c-4,0-7.6-0.6-10.7-1.9c-3.1-1.3-5.7-3-7.8-5.2c-2.1-2.2-3.7-4.8-4.8-7.8
		c-1.1-3-1.6-6.2-1.6-9.7c0-5.9,0.9-10.9,2.6-15.3c1.8-4.3,4.1-7.9,6.9-10.7c2.8-2.8,6.1-4.9,9.6-6.2c3.6-1.4,7.2-2,10.9-2
		c3.3,0,6.3,0.4,9.1,1.3c2.8,0.9,5.1,2.2,7.1,3.8c2,1.7,3.5,3.8,4.5,6.3c1,2.5,1.5,5.4,1.4,8.6H270.5z"/>
	<path class="st0" d="M289.8,63.5h8.5l-1.6,7.9l0.2,0.2c0.6-1.1,1.4-2.2,2.3-3.3c0.9-1.1,1.9-2.1,3-2.9c1.1-0.9,2.3-1.6,3.6-2.1
		c1.3-0.5,2.6-0.8,4-0.8c0.7,0,1.5,0,2.2,0c0.7,0,1.4,0.1,2.2,0.2l-1.9,8.6c-0.5-0.1-1-0.2-1.6-0.2c-0.5-0.1-1-0.1-1.6-0.1
		c-2.3,0-4.3,0.4-6,1.2c-1.7,0.8-3.1,1.9-4.3,3.3c-1.2,1.4-2.1,3-2.9,4.9c-0.7,1.8-1.3,3.8-1.7,5.8l-3.8,18h-8.9L289.8,63.5z"/>
	<path class="st0" d="M349.4,91.5c-1.4,4.8-3.8,8.2-7.1,10.4c-3.3,2.2-7.5,3.3-12.4,3.3c-2.6,0-4.9-0.4-7.1-1.2
		c-2.2-0.8-4-2-5.6-3.5c-1.6-1.5-2.8-3.4-3.7-5.6c-0.9-2.2-1.3-4.6-1.3-7.4c0-3.1,0.5-6.2,1.5-9.2c1-3,2.4-5.6,4.4-8
		c1.9-2.4,4.3-4.2,7.1-5.7c2.8-1.4,6-2.2,9.6-2.2c3.6,0,6.5,0.6,8.8,1.8c2.2,1.2,4,2.7,5.3,4.6c1.3,1.8,2.1,3.8,2.5,6
		c0.4,2.2,0.7,4.3,0.7,6.3c0,1-0.1,1.9-0.2,2.7c-0.1,0.8-0.2,1.6-0.3,2.3h-30.2c-0.1,0.3-0.1,0.5-0.1,0.7c0,0.2,0,0.4,0,0.6v1.3
		c0,2.8,0.7,5.1,2.2,6.8c1.5,1.7,4,2.6,7.4,2.6c2.4,0,4.5-0.5,6.2-1.6c1.7-1.1,2.9-2.7,3.5-4.9H349.4z M342.9,80.2
		c0.1-0.3,0.1-0.5,0.1-0.7c0-0.2,0-0.4,0-0.6v-1.3c0-2.4-0.8-4.4-2.3-5.9c-1.5-1.5-3.6-2.3-6.3-2.3c-3.3,0-6,1-8,3
		c-2,2-3.4,4.6-4.3,7.7H342.9z"/>
	<path class="st0" d="M390.1,92.3c-0.2,0.7-0.3,1.4-0.5,2.1c-0.2,0.7-0.3,1.3-0.3,1.9s0.1,1,0.4,1.3c0.3,0.3,0.8,0.5,1.5,0.5
		c0.5,0,1-0.1,1.6-0.2c0.5-0.1,1-0.2,1.6-0.3l-1.4,6.4c-1.2,0.3-2.3,0.5-3.5,0.7c-1.2,0.2-2.3,0.4-3.5,0.4c-1.5,0-2.8-0.5-3.8-1.4
		c-1-0.9-1.5-2.2-1.6-3.8c-1.8,1.8-3.9,3.1-6.3,3.9c-2.4,0.8-4.9,1.3-7.4,1.3c-1.7,0-3.3-0.2-4.8-0.7c-1.5-0.5-2.9-1.2-4-2
		c-1.2-0.9-2.1-2-2.8-3.4c-0.7-1.4-1-2.9-1-4.7c0-2.5,0.5-4.6,1.4-6.3c0.9-1.7,2.2-3.1,3.8-4.2c1.6-1.1,3.4-1.9,5.4-2.4
		c2-0.5,4.2-0.9,6.4-1c3-0.2,6-0.4,8.9-0.7c1.6-0.1,2.8-0.6,3.6-1.6c0.8-1,1.1-2.2,1.1-3.7c0-1.9-0.7-3.2-2-3.9c-1.4-0.7-3-1-4.8-1
		c-2.5,0-4.7,0.4-6.5,1.3c-1.8,0.9-3,2.5-3.6,5.1h-8.5c0.5-2.5,1.3-4.6,2.4-6.3c1.2-1.7,2.6-3.1,4.2-4.2c1.7-1.1,3.6-1.8,5.7-2.3
		c2.1-0.4,4.4-0.7,6.8-0.7c3.7,0,6.5,0.4,8.6,1.1c2.1,0.7,3.6,1.6,4.6,2.5c1,1,1.6,2,1.8,3.1c0.2,1.1,0.3,2,0.3,2.7
		c0,1.8-0.3,3.8-0.8,6.1L390.1,92.3z M363.2,92.9c0,1,0.2,1.8,0.7,2.5c0.4,0.7,1,1.2,1.7,1.6c0.7,0.4,1.4,0.7,2.3,0.9
		c0.8,0.2,1.7,0.3,2.5,0.3c2.2,0,4-0.4,5.5-1.1c1.5-0.7,2.7-1.7,3.7-3c1-1.3,1.7-2.7,2.3-4.4s1-3.5,1.3-5.5L383,84
		c-0.6,0.6-1.5,1.1-2.5,1.3c-1,0.3-2.1,0.4-3.1,0.5c-1.3,0.1-2.7,0.2-4.4,0.3c-1.6,0.1-3.2,0.4-4.6,0.8c-1.4,0.4-2.7,1.1-3.7,2
		C363.7,90,363.2,91.3,363.2,92.9z"/>
	<path class="st0" d="M411,51.3h8.7l-2.5,12.2h8.1l-1.4,6.7h-8.1L411.7,90c-0.2,0.9-0.4,1.7-0.5,2.5c-0.2,0.8-0.2,1.4-0.2,1.9
		c0,0.9,0.2,1.6,0.6,2.2c0.4,0.5,1.3,0.8,2.6,0.8c0.7,0,1.4,0,2.2,0c0.8,0,1.7-0.1,2.5-0.4l-1.5,6.6c-1.2,0.3-2.4,0.5-3.7,0.6
		c-1.3,0.2-2.5,0.2-3.7,0.2c-1.6,0-3-0.2-4-0.6c-1-0.4-1.9-1-2.5-1.7s-1-1.5-1.3-2.4c-0.2-0.9-0.4-1.8-0.4-2.8
		c0-0.8,0.1-1.6,0.2-2.6c0.1-0.9,0.2-1.6,0.4-2l4.6-22.2h-7.1l1.4-6.7h7.1L411,51.3z"/>
	<path class="st0" d="M462.8,91.5c-1.4,4.8-3.8,8.2-7.1,10.4c-3.3,2.2-7.5,3.3-12.4,3.3c-2.6,0-4.9-0.4-7.1-1.2
		c-2.2-0.8-4-2-5.6-3.5c-1.6-1.5-2.8-3.4-3.7-5.6c-0.9-2.2-1.3-4.6-1.3-7.4c0-3.1,0.5-6.2,1.5-9.2c1-3,2.4-5.6,4.4-8
		c1.9-2.4,4.3-4.2,7.1-5.7c2.8-1.4,6-2.2,9.6-2.2c3.6,0,6.5,0.6,8.8,1.8c2.2,1.2,4,2.7,5.3,4.6c1.3,1.8,2.1,3.8,2.5,6
		c0.4,2.2,0.7,4.3,0.7,6.3c0,1-0.1,1.9-0.2,2.7c-0.1,0.8-0.2,1.6-0.3,2.3h-30.2c-0.1,0.3-0.1,0.5-0.1,0.7c0,0.2,0,0.4,0,0.6v1.3
		c0,2.8,0.7,5.1,2.2,6.8c1.5,1.7,4,2.6,7.4,2.6c2.4,0,4.5-0.5,6.2-1.6c1.7-1.1,2.9-2.7,3.5-4.9H462.8z M456.2,80.2
		c0.1-0.3,0.1-0.5,0.1-0.7c0-0.2,0-0.4,0-0.6v-1.3c0-2.4-0.8-4.4-2.3-5.9c-1.5-1.5-3.6-2.3-6.3-2.3c-3.3,0-6,1-8,3
		c-2,2-3.4,4.6-4.3,7.7H456.2z"/>
	<path class="st0" d="M480.2,48.1h13.5l6.1,42.7h0.2l24.3-42.7h13.9l-11.5,56h-9.4l9.7-44.9h-0.2l-25.3,44.9h-7.7l-7.1-44.9h-0.2
		l-8.6,44.9h-9.4L480.2,48.1z"/>
	<path class="st0" d="M540.3,63.5h9.4l4.2,29.7h0.2l15.3-29.7h9.6l-23.2,41.8c-1,1.9-2.1,3.8-3.1,5.6c-1,1.8-2.1,3.4-3.4,4.7
		c-1.3,1.4-2.8,2.5-4.5,3.3c-1.7,0.8-3.8,1.2-6.4,1.2c-1.5,0-3.3-0.2-5.4-0.6l1.6-7.5c0.6,0.2,1.2,0.3,1.7,0.4
		c0.6,0.1,1.2,0.2,1.7,0.2c1.4,0,2.5-0.2,3.5-0.7c1-0.5,1.7-1.4,2.3-2.7l3.5-6.5L540.3,63.5z"/>
	<path class="st0" d="M573.8,93.5h10.9l-2.4,10.6h-10.9L573.8,93.5z"/>
	<path class="st0" d="M605,48.1h24.2c1.2,0,2.8,0.1,4.8,0.3c2,0.2,3.9,0.8,5.8,1.7c1.9,0.9,3.6,2.4,4.9,4.3c1.4,1.9,2.1,4.6,2.1,8
		c0,4.4-1.1,7.9-3.4,10.4c-2.2,2.5-5.4,4.1-9.3,4.8v0.2c2.4,0.9,3.9,2.2,4.7,4c0.8,1.8,1.2,3.8,1.2,6.2c0,1.9-0.2,3.9-0.5,5.8
		c-0.3,1.9-0.4,3.9-0.4,5.8c0,0.8,0.1,1.6,0.2,2.4c0.1,0.8,0.4,1.5,0.8,2.3H630c-0.3-0.7-0.4-1.4-0.5-2.1c-0.1-0.7-0.1-1.4-0.1-2.2
		c0-2.1,0.2-4.1,0.5-6.2c0.3-2,0.5-4,0.5-6.1c0-1.6-0.3-2.9-0.9-3.8c-0.6-0.9-1.4-1.5-2.4-1.9c-1-0.4-2.1-0.6-3.4-0.7
		s-2.5-0.1-3.8-0.1h-11.7l-4.8,23.1h-10L605,48.1z M609.7,73.6h14.4c4.2,0,7.5-0.9,9.7-2.6c2.2-1.8,3.3-4.3,3.3-7.6
		c0-1.5-0.3-2.8-0.8-3.7c-0.5-1-1.3-1.7-2.2-2.2c-0.9-0.5-2-0.9-3.2-1.1c-1.2-0.2-2.5-0.3-3.8-0.3h-13.7L609.7,73.6z"/>
	<path class="st0" d="M683,104.1h-8.4l1.3-5.9l-0.2-0.2c-1.6,2.2-3.6,4-6.1,5.3c-2.4,1.3-5.1,1.9-7.9,1.9c-4.1,0-7.1-1-9-2.9
		c-1.9-1.9-2.9-4.5-2.9-7.8c0-0.7,0-1.6,0.1-2.5c0.1-0.9,0.2-1.8,0.3-2.5l5.4-25.9h8.9l-5.2,25c-0.2,0.7-0.3,1.3-0.4,2
		c-0.1,0.6-0.2,1.2-0.2,1.8c0,0.3,0,0.8,0,1.5s0.2,1.3,0.6,2c0.4,0.7,1,1.2,1.8,1.7c0.8,0.5,2.1,0.7,3.8,0.7c1.7,0,3.3-0.4,4.7-1.1
		c1.4-0.8,2.7-1.7,3.8-2.9s2-2.5,2.7-4c0.7-1.5,1.3-3,1.6-4.5l4.5-22h8.9L683,104.1z"/>
	<path class="st0" d="M701,63.5h8.4l-1.3,5.9l0.2,0.2c1.6-2.2,3.6-4,6.1-5.3c2.4-1.3,5.1-1.9,7.9-1.9c4.1,0,7.1,1,9,2.9
		c1.9,1.9,2.9,4.6,2.9,7.8c0,0.7,0,1.6-0.1,2.5c-0.1,0.9-0.2,1.8-0.3,2.5l-5.4,25.9h-8.9l5.2-25c0.2-0.7,0.3-1.3,0.4-2
		c0.1-0.6,0.2-1.2,0.2-1.8c0-0.3,0-0.8,0-1.5c0-0.7-0.2-1.3-0.6-2c-0.4-0.7-1-1.2-1.8-1.7c-0.9-0.5-2.1-0.7-3.7-0.7
		c-1.8,0-3.4,0.4-4.7,1.1c-1.4,0.8-2.6,1.7-3.7,2.8c-1,1-1.9,2.3-2.7,3.9c-0.8,1.5-1.3,3.2-1.7,4.8l-4.5,22h-8.9L701,63.5z"/>
</g>
</svg>
