<?xml version="1.0" encoding="utf-8"?>
<!-- Generator: Adobe Illustrator 22.0.1, SVG Export Plug-In . SVG Version: 6.00 Build 0)  -->
<svg version="1.1" id="Layer_1" xmlns="http://www.w3.org/2000/svg" xmlns:xlink="http://www.w3.org/1999/xlink" x="0px" y="0px"
	 width="300px" height="300px" viewBox="0 0 300 300" style="enable-background:new 0 0 300 300;" xml:space="preserve">
<g>
	<path d="M52.2,114.2l106.9,76.5c3.7,0.7,22.1,3.6,45.8-0.5l21.8-3.7c-4.6-6.2-14.2-16.8-25.2-17.1c-9.2-0.2-15.8-0.9-21.3-3.4
		c-5.7-2.5-9.9-6.6-14.4-13.5l-0.7-1.1l-10.5,13.3l-5.6-4.4l12.5-15.8c-1.5-3.3-3.1-7-4.6-10.9l-14.2,18l-5.6-4.4l16.8-21.4
		c-1.7-4.4-3.2-8.9-4.7-13l-21,26.7l-5.6-4.4l23.9-30.3c-1-2.9-1.8-5.3-2.3-6.9c-3.9-0.2-7.8-0.6-11.5-1.1
		c-9.6,13.9-29.1,23.4-51.6,23.4c-10.2,0-19.9-2-28.2-5.4L52.2,114.2L52.2,114.2z M47.9,119.8c-2,2.6-4,5.3-5.9,7.9
		c-2.6,3.5-5.4,5.8-1.4,9.2c3.6,3.1,18.9,13.8,37.1,26.1c28.8,19.6,64.6,43.2,72.5,48.1c10.6,6.6,66.1,2.3,80.4,1.1l-1.2-19l-23.3,4
		c-15.2,2.6-34.5,3.3-49.9,0.1L47.9,119.8L47.9,119.8z M89.4,64.8c14.1,18.2,31.9,24.7,54.7,26.1c2.6,0.2,5-1,6.6,4.1
		c5.2,16.5,13,41.4,21,53.7c3.6,5.7,7,9,11.3,10.9c4.5,2,10.3,2.6,18.6,2.8c14.5,0.4,27.4,14,34.5,25.6l1.6,25.7
		c0.1,3.7-2.1,5.2-4.1,5.4c-22.2,1.9-75.3,5.4-87.1-1.9c-7.9-4.9-43.8-28.6-72.8-48.3c-2.4-1.6-39.1-26.6-38.6-27.4
		c-6.4-6.4-3.7-11.4,1.2-18c14.1-19.2,30.3-41.1,46.6-58.4C85,62.9,87.6,62.3,89.4,64.8L89.4,64.8z"/>
</g>
</svg>
